<svg width="1007" height="616" viewBox="0 0 1007 616" fill="none" xmlns="http://www.w3.org/2000/svg">
<path d="M0 28C0 12.536 12.536 0 28 0H884C899.464 0 912 12.536 912 28V588C912 603.464 899.464 616 884 616H28C12.536 616 0 603.464 0 588V28Z" fill="black"/>
<path d="M74.5547 383.289C74.9453 380.945 74.9453 374.695 74.5547 364.539C74.1641 354.383 73.9688 341.883 73.9688 327.039C74.3594 311.805 74.75 295.203 75.1406 277.234C75.9219 259.266 77.2891 241.102 79.2422 222.742C81.5859 204.383 84.7109 186.805 88.6172 170.008C92.9141 152.82 98.3828 137.977 105.023 125.477C107.367 114.93 113.031 107.703 122.016 103.797C131 99.5 143.695 96.9609 160.102 96.1797C170.648 96.1797 179.633 98.9141 187.055 104.383C194.477 109.852 200.727 116.688 205.805 124.891C211.273 132.703 215.961 141.297 219.867 150.672C223.773 160.047 227.289 168.445 230.414 175.867V178.797C233.148 186.609 235.102 198.328 236.273 213.953C237.836 229.188 238.812 245.398 239.203 262.586C239.984 279.383 240.375 295.594 240.375 311.219C240.375 326.844 240.375 338.758 240.375 346.961C240.375 358.68 238.812 372.742 235.688 389.148C232.562 405.164 227.484 420.398 220.453 434.852C213.812 449.305 205.023 461.609 194.086 471.766C183.148 481.922 170.062 487 154.828 487C141.938 487 130.414 483.68 120.258 477.039C110.492 470.398 102.094 462 95.0625 451.844C88.4219 441.297 83.3438 429.969 79.8281 417.859C76.3125 405.75 74.5547 394.227 74.5547 383.289ZM131.391 422.547C132.172 426.844 134.32 431.336 137.836 436.023C141.742 440.32 146.234 442.469 151.312 442.469H156C172.406 427.625 183.148 410.633 188.227 391.492C193.305 371.961 195.844 351.453 195.844 329.969C195.844 324.891 195.648 317.078 195.258 306.531C194.867 295.984 194.086 284.266 192.914 271.375C192.133 258.094 190.961 244.227 189.398 229.773C187.836 215.32 185.883 201.844 183.539 189.344C181.195 176.453 178.461 165.32 175.336 155.945C172.211 146.57 168.5 140.125 164.203 136.609C163.812 137 163.227 137.781 162.445 138.953C162.055 140.125 161.859 140.906 161.859 141.297C153.656 151.453 146.234 165.32 139.594 182.898C132.953 200.477 127.875 221.375 124.359 245.594C121.234 269.422 119.867 296.375 120.258 326.453C121.039 356.141 124.75 388.172 131.391 422.547ZM274.945 469.422C274.164 426.062 272.992 382.898 271.43 339.93C270.258 296.57 269.672 253.211 269.672 209.852C269.672 206.727 269.672 201.258 269.672 193.445C269.672 185.242 269.672 176.648 269.672 167.664C270.062 158.68 270.258 150.281 270.258 142.469C270.258 134.656 270.258 129.188 270.258 126.062C271.82 119.813 274.164 114.93 277.289 111.414C280.414 107.508 285.297 105.555 291.938 105.555C298.578 105.555 304.438 107.703 309.516 112C314.594 115.906 318.695 120.594 321.82 126.062L406.195 288.953C406.586 289.734 407.953 292.078 410.297 295.984C412.641 299.891 414.398 302.625 415.57 304.188C415.961 304.578 416.547 304.969 417.328 305.359C418.109 305.75 418.5 306.141 418.5 306.531L420.844 301.258L470.648 126.062C474.164 120.594 476.703 114.539 478.266 107.898C480.219 100.867 482.172 94.0313 484.125 87.3906C486.469 80.75 489.203 74.5 492.328 68.6406C495.844 62.7812 500.922 57.8984 507.562 53.9922H512.25C522.797 53.9922 530.609 57.1172 535.688 63.3672C540.766 69.2266 544.281 76.6484 546.234 85.6328C548.188 94.2266 548.969 103.406 548.578 113.172C548.578 122.547 548.773 130.75 549.164 137.781C549.164 140.516 549.359 145.789 549.75 153.602C550.531 161.414 551.312 170.594 552.094 181.141C552.875 191.688 553.656 203.016 554.438 215.125C555.219 226.844 555.805 237.977 556.195 248.523C556.977 259.07 557.562 268.25 557.953 276.062C558.734 283.875 559.125 288.953 559.125 291.297V293.641C559.516 297.156 560.297 303.016 561.469 311.219C562.641 319.422 563.812 328.211 564.984 337.586C566.547 346.57 567.914 355.164 569.086 363.367C570.258 371.57 571.234 377.234 572.016 380.359C572.406 382.312 572.992 385.242 573.773 389.148C574.945 393.055 576.117 397.352 577.289 402.039C578.852 406.336 580.219 410.438 581.391 414.344C582.562 418.25 583.539 420.984 584.32 422.547C582.758 431.531 580.414 438.562 577.289 443.641C574.555 448.328 568.305 450.672 558.539 450.672C557.367 450.672 555.609 450.672 553.266 450.672C550.922 450.281 549.555 450.086 549.164 450.086C547.992 449.305 545.648 447.352 542.133 444.227C539.008 441.102 537.25 438.953 536.859 437.781L527.484 405.555L509.906 271.961V266.688C509.516 259.656 509.32 252.234 509.32 244.422C509.32 236.219 509.125 228.016 508.734 219.812C508.734 211.609 508.344 203.406 507.562 195.203C506.781 187 505.219 179.383 502.875 172.352L499.945 175.867L457.758 345.789C457.367 350.086 456.977 354.773 456.586 359.852C456.195 364.539 455.219 369.227 453.656 373.914C452.094 378.211 449.75 381.922 446.625 385.047C443.5 388.172 439.008 389.93 433.148 390.32C430.805 390.711 428.266 390.32 425.531 389.148C422.797 387.977 420.062 386.414 417.328 384.461C414.594 382.508 412.055 380.359 409.711 378.016C407.758 375.281 406.586 372.742 406.195 370.398L331.781 252.039L319.477 227.43V277.82C319.477 301.648 319.867 325.086 320.648 348.133C321.82 370.789 322.406 394.031 322.406 417.859C322.406 419.812 322.406 423.328 322.406 428.406C322.406 433.094 322.211 438.172 321.82 443.641C321.82 449.109 321.82 454.383 321.82 459.461C321.82 464.148 321.82 467.469 321.82 469.422C320.258 474.109 317.914 478.211 314.789 481.727C312.055 485.242 307.953 487 302.484 487C295.062 487 289.203 485.828 284.906 483.484C281 480.75 277.68 476.062 274.945 469.422ZM611.273 397.352C615.961 358.289 619.672 328.211 622.406 307.117C625.141 286.023 627.094 270.398 628.266 260.242C629.828 248.523 630.609 241.688 630.609 239.734C634.125 227.625 637.836 214.539 641.742 200.477C645.648 186.414 650.727 173.328 656.977 161.219C663.617 149.109 672.016 138.953 682.172 130.75C692.328 122.547 705.414 118.445 721.43 118.445C728.461 118.445 734.711 119.031 740.18 120.203C746.039 120.984 751.508 122.547 756.586 124.891C761.664 127.234 766.547 130.164 771.234 133.68C776.312 136.805 781.586 140.711 787.055 145.398C790.961 148.914 793.109 151.062 793.5 151.844C794.281 152.625 794.672 154.969 794.672 158.875C794.672 163.953 792.914 168.836 789.398 173.523C785.883 178.211 780.805 180.555 774.164 180.555C768.695 180.555 764.203 179.383 760.688 177.039C757.172 174.305 753.656 171.375 750.141 168.25C747.016 164.734 743.5 161.805 739.594 159.461C736.078 156.727 731.391 155.359 725.531 155.359C719.281 155.359 713.812 157.117 709.125 160.633C704.438 163.758 700.336 167.859 696.82 172.938C693.695 178.016 691.156 183.68 689.203 189.93C687.641 196.18 686.469 202.039 685.688 207.508L658.148 395.008C658.148 395.789 657.953 397.742 657.562 400.867C657.562 403.602 657.562 405.75 657.562 407.312C657.562 410.047 657.562 413.562 657.562 417.859C657.562 421.766 657.953 425.867 658.734 430.164C659.516 434.07 660.883 437.586 662.836 440.711C664.789 443.445 667.719 444.812 671.625 444.812C673.969 444.812 676.117 444.031 678.07 442.469C696.82 429.969 712.836 415.516 726.117 399.109C739.789 382.312 752.68 364.539 764.789 345.789C765.18 345.008 766.156 343.25 767.719 340.516C769.672 337.391 771.43 334.266 772.992 331.141C774.945 327.625 776.703 324.305 778.266 321.18C779.828 317.664 781 315.125 781.781 313.562C784.125 308.484 785.883 303.211 787.055 297.742C788.227 292.273 789.594 287.195 791.156 282.508C793.109 277.82 795.844 274.109 799.359 271.375C802.875 268.25 808.344 266.688 815.766 266.688C821.234 266.688 826.508 269.031 831.586 273.719C836.664 278.406 839.203 283.875 839.203 290.125V291.297C829.438 319.422 816.742 345.398 801.117 369.227C785.883 393.055 768.891 416.688 750.141 440.125C738.422 454.188 724.945 465.516 709.711 474.109C694.477 482.703 677.484 487 658.734 487H655.805C638.227 480.359 626.312 470.594 620.062 457.703C614.203 444.422 611.273 428.992 611.273 411.414V397.352Z" fill="white"/>
<g filter="url(#filter0_d_13_13)">
<path d="M857.593 403.8C853.993 403.8 850.793 402 847.993 398.4C845.593 394.4 844.393 389.2 844.393 382.8C844.393 374 845.993 360.2 849.193 341.4C852.793 322.2 857.393 300 862.993 274.8C868.993 249.2 875.793 222.6 883.393 195C891.393 167.4 899.793 140.4 908.593 114C917.393 87.2 926.193 63.4 934.993 42.6C940.993 28.6 948.393 21.6 957.193 21.6C966.393 21.6 974.793 26 982.393 34.8C989.993 43.6 993.793 54.4 993.793 67.2C993.793 72 991.393 81 986.593 94.2C982.193 107.4 976.193 123.4 968.593 142.2C961.393 161 953.393 181.2 944.593 202.8C935.793 224.4 926.793 246.4 917.593 268.8C908.793 290.8 900.593 311.6 892.993 331.2C885.393 350.8 879.393 367.8 874.993 382.2C872.193 391 869.593 396.8 867.193 399.6C864.793 402.4 861.593 403.8 857.593 403.8ZM822.193 582.6C816.193 582.6 809.993 579.2 803.593 572.4C797.193 565.6 793.993 551.8 793.993 531C793.993 519.4 797.793 510.8 805.393 505.2C812.993 499.2 822.793 496.2 834.793 496.2C855.193 496.2 865.393 506.8 865.393 528C865.393 538 862.993 547 858.193 555C853.393 563.4 847.593 570 840.793 574.8C834.393 580 828.193 582.6 822.193 582.6Z" fill="#F35C7A"/>
</g>
<defs>
<filter id="filter0_d_13_13" x="793.993" y="21.6" width="212.8" height="565" filterUnits="userSpaceOnUse" color-interpolation-filters="sRGB">
<feFlood flood-opacity="0" result="BackgroundImageFix"/>
<feColorMatrix in="SourceAlpha" type="matrix" values="0 0 0 0 0 0 0 0 0 0 0 0 0 0 0 0 0 0 127 0" result="hardAlpha"/>
<feOffset dx="13" dy="4"/>
<feComposite in2="hardAlpha" operator="out"/>
<feColorMatrix type="matrix" values="0 0 0 0 1 0 0 0 0 0.983333 0 0 0 0 0.983333 0 0 0 1 0"/>
<feBlend mode="normal" in2="BackgroundImageFix" result="effect1_dropShadow_13_13"/>
<feBlend mode="normal" in="SourceGraphic" in2="effect1_dropShadow_13_13" result="shape"/>
</filter>
</defs>
</svg>
