<?xml version="1.0" ?>
<!-- Uploaded to: SVG Repo, www.svgrepo.com, Generator: SVG Repo Mixer Tools -->
<svg width="800px" height="800px" viewBox="0 0 512 512" xmlns="http://www.w3.org/2000/svg">
<defs>
<style>.cls-1{fill:#f19ec3;}</style>
</defs>
<title/>
<g data-name="Layer 7" id="Layer_7">
<circle class="cls-1" cx="261.5" cy="279.5" r="131.5"/>
<path d="M267.29,246.57h-24.5a18.47,18.47,0,1,1,0-36.93H286a8.43,8.43,0,0,0,0-16.85H263.5v-17.2a8.43,8.43,0,0,0-16.85,0v17.2h-3.86a35.32,35.32,0,1,0,0,70.63h24.5a18.47,18.47,0,1,1,0,36.93h-44a8.43,8.43,0,0,0,0,16.85h23.31v17.55a8.43,8.43,0,0,0,16.85,0V317.21h4.28a35.32,35.32,0,0,0-.42-70.63Z"/>
<path d="M371.69,138.31A165.1,165.1,0,1,0,420,255,163.89,163.89,0,0,0,371.69,138.31ZM255,403.15c-81.66,0-148.15-66.49-148.15-148.15S173.34,106.85,255,106.85,403.15,173.34,403.15,255,336.66,403.15,255,403.15Z"/>
</g>
</svg>